<svg width="1372" height="212" viewBox="0 0 1372 212" fill="none" xmlns="http://www.w3.org/2000/svg">
<path d="M1211.04 206.529V4.61499H1275.66C1332.77 4.61499 1372 45.5747 1372 105.572C1372 165.569 1332.77 206.529 1275.66 206.529H1211.04ZM1239.31 181.723H1275.66C1316.04 181.723 1343.73 150.859 1343.73 105.572C1343.73 60.2856 1316.04 29.4216 1275.66 29.4216H1239.31V181.723Z" fill="black"/>
<path d="M1015.7 206.529L1084.35 4.61499H1125.6L1194.25 206.529H1165.69L1144.35 144.224H1065.6L1044.26 206.529H1015.7ZM1073.97 119.418H1135.98L1105.12 28.8447L1073.97 119.418Z" fill="black"/>
<path d="M908.882 211.145C873.691 211.145 841.385 192.395 841.385 156.051C841.385 127.206 862.153 111.63 884.941 99.2264C871.96 85.0924 860.999 70.3815 860.999 50.1901C860.999 19.0376 886.383 0 917.535 0C948.399 0 972.917 19.3261 972.917 48.7478C972.917 77.5927 949.553 92.8805 925.035 105.861L961.668 144.513C965.995 132.11 968.879 117.11 969.745 99.5148H998.012C996.859 126.052 991.378 148.263 982.148 166.147L1020.51 206.529H987.34L968.014 186.338C953.014 202.491 932.823 211.145 908.882 211.145ZM869.653 156.628C869.653 174.512 884.941 186.338 908.016 186.338C925.323 186.338 939.169 179.704 949.553 167.012L902.536 117.687C884.364 128.071 869.653 139.032 869.653 156.628ZM889.267 52.2092C889.267 66.0548 897.344 77.3043 907.439 87.6884C927.631 77.5927 944.649 67.497 944.649 49.9016C944.649 34.9023 932.246 24.8066 916.958 24.8066C900.805 24.8066 889.267 36.0561 889.267 52.2092Z" fill="black"/>
<path d="M668.762 206.529V4.61499H733.374C790.487 4.61499 829.716 45.5747 829.716 105.572C829.716 165.569 790.487 206.529 733.374 206.529H668.762ZM697.03 181.723H733.374C773.757 181.723 801.448 150.859 801.448 105.572C801.448 60.2856 773.757 29.4216 733.374 29.4216H697.03V181.723Z" fill="black"/>
<path d="M434.359 133.84V108.745H641.466V133.84H434.359Z" fill="black"/>
<path d="M321.487 211.145C266.105 211.145 226.299 167.3 226.299 105.572C226.299 43.8442 265.816 0 321.487 0C369.946 0 404.849 33.4601 409.464 83.6502L380.619 86.5347C376.292 48.4594 353.505 25.0951 321.199 25.0951C282.546 25.0951 254.567 58.8436 254.567 105.861C254.567 152.878 282.258 186.338 321.199 186.338C353.793 186.338 376.869 162.974 380.907 126.052L409.464 128.937C404.849 178.261 369.658 211.145 321.487 211.145Z" fill="black"/>
<path d="M0 206.529V4.61499H40.6713L100.669 167.877L160.666 4.61499H201.337V206.529H173.069V43.844L113.072 206.529H88.5538L28.268 42.9787V206.529H0Z" fill="black"/>
</svg>
